<svg id="Layer_1" data-name="Layer 1" xmlns="http://www.w3.org/2000/svg" viewBox="0 0 809.75 81.78"><rect x="14.5" y="2.5" width="65" height="65" rx="1.44" style="fill:#ccf;stroke:#fff;stroke-miterlimit:10;stroke-width:5px"/><rect x="9.5" y="14.5" width="52" height="52" rx="1.15" style="fill:#369;stroke:#fff;stroke-miterlimit:10;stroke-width:5px"/><path d="M43.5,65.58a.89.89,0,0,1-.83.92H3.33a.89.89,0,0,1-.83-.92V26.42a.89.89,0,0,1,.83-.92H42.67a.89.89,0,0,1,.83.92Z" transform="translate(0)" style="fill:#366;stroke:#fff;stroke-miterlimit:10;stroke-width:5px"/><g style="isolation:isolate"><path d="M97.75,50h10.83q.61,4.63,3.56,6.5,3.09,2.16,8.5,2.16,4.8,0,7.27-1.7A5.64,5.64,0,0,0,130.39,52q0-5-13.92-8l-.31-.16-1.24-.31q-7.89-1.7-10.52-3.56a9.21,9.21,0,0,1-4.33-5,14.51,14.51,0,0,1-1.55-7.11q0-7.57,5.26-11.91,5.27-4.18,15.32-4.18,9.44,0,14.54,4.33a17.2,17.2,0,0,1,5.57,12.53H133a5.27,5.27,0,0,1-5.11-3.25,7.59,7.59,0,0,0-2.16-2.63,12.74,12.74,0,0,0-7.58-2q-4.64,0-6.65,1.7a5.61,5.61,0,0,0-2.32,4.8q0,4.17,9,6.19a29.34,29.34,0,0,0,3.87.93c1.85.61,3.48,1.1,4.87,1.46l3.32.86,4.34,1.85a13.35,13.35,0,0,1,4.79,4.8,15.14,15.14,0,0,1,1.7,7.11q0,8.36-5.57,13-5.56,4.32-15.77,4.33-10.53,0-15.78-4.49Q98.21,58.77,97.75,50Z" transform="translate(0)" style="fill:#033"/><path d="M144.16,13.29h5.57A5.26,5.26,0,0,1,155,18.55v3.24H144.16Zm0,12.06h5.57A5.28,5.28,0,0,1,155,30.61V66.5H144.16Z" transform="translate(0)" style="fill:#033"/><path d="M154.52,52.89H165a5.68,5.68,0,0,0,2.32,4.64,11,11,0,0,0,6.19,1.55A10,10,0,0,0,178.34,58a3.29,3.29,0,0,0,1.86-2.94c0-1.85-2.17-3.25-6.5-4.17a29.87,29.87,0,0,1-4.18-.93q-8.19-2-11-4.8a9.49,9.49,0,0,1-3.09-7.42A12.33,12.33,0,0,1,159.93,28q4.65-3.56,12.07-3.56,8,0,12.84,3.56A13.59,13.59,0,0,1,189.63,38H183a4.91,4.91,0,0,1-4.48-2.63l-1.24-1.24a8.34,8.34,0,0,0-5.11-1.39,9.19,9.19,0,0,0-4.64.93,3.13,3.13,0,0,0-1.39,2.78q0,2.48,8,4.18a14.5,14.5,0,0,0,1.62.46,5.64,5.64,0,0,0,1.31.16q7.89,2,11,4.64A9.77,9.77,0,0,1,191,53.35q0,6.81-4.95,10.52-4.65,3.41-13.93,3.4c-5.87,0-10.26-1.18-13.14-3.55s-4.49-5.83-4.49-10.37Z" transform="translate(0)" style="fill:#033"/><path d="M211,66.5a81.17,81.17,0,0,1-11.06-.15q-6-.46-5.95-7.58V13.29h5.56a4.89,4.89,0,0,1,3.56,1.54,5.09,5.09,0,0,1,1.55,3.72v7H211v2.16a5,5,0,0,1-1.55,3.79,5.2,5.2,0,0,1-3.71,1.47h-1.08v22.9c0,1.75,1,2.63,3.09,2.63H211Z" transform="translate(0)" style="fill:#033"/><path d="M240.53,53.82h7.73a16.9,16.9,0,0,1-6.5,9.9,19.69,19.69,0,0,1-12.06,3.55q-8.82,0-13.77-5.72-5-5.56-5-15.93,0-9.9,4.8-15.47,5-5.73,13.76-5.73,9.28,0,14.39,5.57,4.95,5.73,4.95,15.94v1.7a2.47,2.47,0,0,1-.16,1.08H222q.16,4.8,2.32,7.12,2,2.47,6,2.47a8.74,8.74,0,0,0,4.48-1.08,2.05,2.05,0,0,0,.85-.54l.85-.85a3.47,3.47,0,0,1,1.16-1.24A4.6,4.6,0,0,1,240.53,53.82ZM222,41.75h15.78c-.21-2.78-.93-4.85-2.16-6.19a7.46,7.46,0,0,0-5.73-2.16,7.56,7.56,0,0,0-5.57,2.16A9,9,0,0,0,222,41.75Z" transform="translate(0)" style="fill:#033"/><path d="M286.47,66.5H275.79V40.2c0-2.47-.74-4.28-2.24-5.41a8.13,8.13,0,0,0-5-1.7,7.84,7.84,0,0,0-4.95,1.7c-1.44,1.13-2.16,2.94-2.16,5.41V66.5H250.58V42.37q0-10.51,5.49-14.08a24,24,0,0,1,12.15-3.87,31.07,31.07,0,0,1,7,.78,14.73,14.73,0,0,1,6.18,3.09,13.71,13.71,0,0,1,5.5-2.86,31.48,31.48,0,0,1,6.57-1A23.3,23.3,0,0,1,306,28q5.71,3.57,5.72,14.39V66.5h-5.41A5,5,0,0,1,301,61.24v-21c0-2.47-.75-4.28-2.24-5.41a8.29,8.29,0,0,0-10.06,0c-1.49,1.13-2.24,2.94-2.24,5.41V66.5Z" transform="translate(0)" style="fill:#033"/><path d="M340.92,64.8A19.21,19.21,0,0,1,334,66.89a63.77,63.77,0,0,1-6.42.38,16.2,16.2,0,0,1-9.75-3q-4.17-3-4.18-10,0-6.49,3.79-9.28a21.71,21.71,0,0,1,9.67-3.71,8.77,8.77,0,0,0,1.86-.24c.72-.15,1.54-.28,2.47-.38q6.81-.93,6.81-4a2.93,2.93,0,0,0-2.4-3,16.1,16.1,0,0,0-4.41-.7,11.28,11.28,0,0,0-3.86.62,4.23,4.23,0,0,0-2.48,2.32H314.78A11.91,11.91,0,0,1,319.11,28q4.17-3.56,11.91-3.56c5.77,0,10.1,1,13,2.94A10,10,0,0,1,348.5,36V50.1q0,6.19-2.24,9.67A13.78,13.78,0,0,1,340.92,64.8Zm-2.48-19a29.21,29.21,0,0,1-6,2l-3.56.78a9.06,9.06,0,0,0-4,2,6.3,6.3,0,0,0-1.08,3.4,5,5,0,0,0,1.39,3.71,5.85,5.85,0,0,0,4,1.24,8.55,8.55,0,0,0,9.28-9.28Z" transform="translate(0)" style="fill:#033"/><path d="M349.12,52.89h10.52A5.68,5.68,0,0,0,362,57.53a11,11,0,0,0,6.18,1.55,10,10,0,0,0,4.8-1.09,3.29,3.29,0,0,0,1.86-2.94c0-1.85-2.17-3.25-6.5-4.17a29.54,29.54,0,0,1-4.18-.93c-5.47-1.34-9.12-2.94-11-4.8a9.49,9.49,0,0,1-3.09-7.42A12.33,12.33,0,0,1,354.53,28q4.64-3.56,12.07-3.56,8,0,12.84,3.56A13.62,13.62,0,0,1,384.23,38h-6.65a4.93,4.93,0,0,1-4.49-2.63l-1.23-1.24a8.34,8.34,0,0,0-5.11-1.39,9.19,9.19,0,0,0-4.64.93,3.11,3.11,0,0,0-1.39,2.78q0,2.48,8,4.18a14.61,14.61,0,0,0,1.63.46,5.64,5.64,0,0,0,1.31.16q7.89,2,11,4.64a9.73,9.73,0,0,1,2.94,7.42q0,6.81-4.95,10.52-4.64,3.41-13.92,3.4-8.82,0-13.15-3.55-4.49-3.57-4.48-10.37Z" transform="translate(0)" style="fill:#033"/><path d="M405.11,66.5V18.86a5.55,5.55,0,0,1,5.57-5.57H431q8.66,0,12.84,3.71,4.32,3.87,4.33,11.29a14.5,14.5,0,0,1-2.17,8.2A10.61,10.61,0,0,1,440.07,41,8.52,8.52,0,0,1,445,44.69q1.39,2.33,1.7,7.89l.32,6.34v2a12.64,12.64,0,0,0,.15,2c.31,1.86.93,3,1.85,3.56H437a8.86,8.86,0,0,1-.93-3.25,31.86,31.86,0,0,1-.31-3.4l-.15-5.73q-.31-4.63-1.86-6.65c-1.13-1.13-3.15-1.7-6-1.7H416.1V66.5Zm11-30h12.84q4.17,0,6.18-1.7c1.34-1.13,2-2.89,2-5.26s-.67-4.12-2-5.26-3.09-1.86-5.57-1.86H416.1Z" transform="translate(0)" style="fill:#033"/><path d="M479.83,53.82h7.73a16.89,16.89,0,0,1-6.49,9.9A19.72,19.72,0,0,1,469,67.27q-8.82,0-13.77-5.72-5-5.56-5-15.93,0-9.9,4.8-15.47,4.95-5.73,13.77-5.73,9.27,0,14.38,5.57,4.95,5.73,4.95,15.94v1.7a2.68,2.68,0,0,1-.15,1.08H461.27q.15,4.8,2.32,7.12c1.33,1.65,3.35,2.47,6,2.47a8.74,8.74,0,0,0,4.48-1.08,2.15,2.15,0,0,0,.86-.54l.85-.85A3.29,3.29,0,0,1,477,54.59,4.57,4.57,0,0,1,479.83,53.82ZM461.27,41.75H477c-.2-2.78-.92-4.85-2.16-6.19a7.44,7.44,0,0,0-5.73-2.16,7.52,7.52,0,0,0-5.56,2.16A8.86,8.86,0,0,0,461.27,41.75Z" transform="translate(0)" style="fill:#033"/><path d="M489,52.89h10.51a5.73,5.73,0,0,0,2.32,4.64A11,11,0,0,0,508,59.08a10,10,0,0,0,4.8-1.09,3.29,3.29,0,0,0,1.85-2.94c0-1.85-2.16-3.25-6.49-4.17A29.54,29.54,0,0,1,504,50q-8.2-2-11-4.8a9.47,9.47,0,0,1-3.1-7.42A12.34,12.34,0,0,1,494.37,28q4.63-3.56,12.06-3.56c5.36,0,9.65,1.19,12.84,3.56A13.63,13.63,0,0,1,524.07,38h-6.65a4.93,4.93,0,0,1-4.49-2.63l-1.24-1.24a8.3,8.3,0,0,0-5.1-1.39,9.19,9.19,0,0,0-4.64.93,3.11,3.11,0,0,0-1.39,2.78q0,2.48,8,4.18a15.13,15.13,0,0,0,1.62.46,5.79,5.79,0,0,0,1.32.16q7.89,2,11,4.64a9.73,9.73,0,0,1,2.94,7.42q0,6.81-5,10.52-4.63,3.41-13.92,3.4-8.82,0-13.15-3.55Q489,60.15,489,53.35Z" transform="translate(0)" style="fill:#033"/><path d="M537.68,76.4a5.29,5.29,0,0,1-5.26,5.26h-5.26V43.14q0-10.83,6.34-14.77a25.6,25.6,0,0,1,13.77-3.95,22.47,22.47,0,0,1,7.81,1.47,14.66,14.66,0,0,1,6.27,4.26q4.64,6,4.64,15.47,0,9.74-4.64,15.78a14.52,14.52,0,0,1-11.91,5.87,15.72,15.72,0,0,1-6.81-1.39,11.7,11.7,0,0,1-5-4.79Zm17.64-30.32c0-4-.78-7.11-2.32-9.28a7.68,7.68,0,0,0-6.66-3.25,7.5,7.5,0,0,0-6.49,3.25q-2.18,2.94-2.17,9.28c0,3.92.78,6.86,2.32,8.82a7.7,7.7,0,0,0,6.65,3.25A7.42,7.42,0,0,0,553,54.9C554.54,52.73,555.32,49.79,555.32,46.08Z" transform="translate(0)" style="fill:#033"/><path d="M573,62.79a15.31,15.31,0,0,1-4.64-7.5,34.5,34.5,0,0,1-1.39-9.83,30.8,30.8,0,0,1,1.16-8.35,17.17,17.17,0,0,1,3.63-7,16,16,0,0,1,10.37-5.49,23.76,23.76,0,0,1,11.44,1,15.8,15.8,0,0,1,8.67,8.05,25.69,25.69,0,0,1,2.63,11.91,29.41,29.41,0,0,1-1.09,8.5,21.81,21.81,0,0,1-2.78,6,15.46,15.46,0,0,1-9.44,6.34,20.92,20.92,0,0,1-10.28.23A18,18,0,0,1,573,62.79Zm7.43-27.23q-3.25,3.57-2.94,10.6T580.07,56a6.89,6.89,0,0,0,3.24,2.09,7.34,7.34,0,0,0,4.72.15,7.88,7.88,0,0,0,4.26-3.48q1.85-2.77,2-9c0-3.71-.6-6.49-1.78-8.35a8.1,8.1,0,0,0-4.1-3.56,7.58,7.58,0,0,0-4.64-.08A8.09,8.09,0,0,0,580.38,35.56Z" transform="translate(0)" style="fill:#033"/><path d="M642.4,66.5H637a5,5,0,0,1-5.26-5.26v-21c0-2.47-.75-4.28-2.24-5.41a8.15,8.15,0,0,0-5-1.7,7.8,7.8,0,0,0-5,1.7c-1.44,1.13-2.16,2.94-2.16,5.41V66.5H606.52V42.37q0-10.51,5.49-14.08a24,24,0,0,1,12.14-3.87A23.28,23.28,0,0,1,636.68,28q5.73,3.57,5.72,14.39Z" transform="translate(0)" style="fill:#033"/><path d="M643.18,52.89H653.7A5.68,5.68,0,0,0,656,57.53a11,11,0,0,0,6.19,1.55A10,10,0,0,0,667,58a3.29,3.29,0,0,0,1.86-2.94c0-1.85-2.17-3.25-6.5-4.17a29.54,29.54,0,0,1-4.18-.93c-5.47-1.34-9.12-2.94-11-4.8a9.49,9.49,0,0,1-3.09-7.42A12.33,12.33,0,0,1,648.59,28q4.65-3.56,12.07-3.56,8,0,12.84,3.56A13.62,13.62,0,0,1,678.29,38h-6.65a4.93,4.93,0,0,1-4.49-2.63l-1.23-1.24a8.34,8.34,0,0,0-5.11-1.39,9.19,9.19,0,0,0-4.64.93,3.11,3.11,0,0,0-1.39,2.78q0,2.48,8,4.18a14.61,14.61,0,0,0,1.63.46,5.64,5.64,0,0,0,1.31.16q7.89,2,11,4.64a9.76,9.76,0,0,1,2.93,7.42q0,6.81-4.95,10.52-4.63,3.41-13.92,3.4-8.82,0-13.15-3.55-4.49-3.57-4.48-10.37Z" transform="translate(0)" style="fill:#033"/><path d="M682.31,13.29h5.57a5.26,5.26,0,0,1,5.26,5.26v3.24H682.31Zm0,12.06h5.57a5.28,5.28,0,0,1,5.26,5.26V66.5H682.31Z" transform="translate(0)" style="fill:#033"/><path d="M719,66.5H708L693.61,25.35h11.44l8.2,28.93,7.27-25.21a4.86,4.86,0,0,1,5-3.72h8Z" transform="translate(0)" style="fill:#033"/><path d="M740.48,62.79a15.24,15.24,0,0,1-4.64-7.5,34.5,34.5,0,0,1-1.4-9.83,31.2,31.2,0,0,1,1.16-8.35,17.31,17.31,0,0,1,3.64-7,16,16,0,0,1,10.36-5.49,23.79,23.79,0,0,1,11.45,1,15.75,15.75,0,0,1,8.66,8.05,25.69,25.69,0,0,1,2.63,11.91,29.43,29.43,0,0,1-1.08,8.5,21.53,21.53,0,0,1-2.79,6A15.43,15.43,0,0,1,759,66.5a21,21,0,0,1-10.29.23A18,18,0,0,1,740.48,62.79Zm7.42-27.23c-2.16,2.38-3.15,5.91-2.94,10.6s1.08,8,2.63,9.82a6.93,6.93,0,0,0,3.25,2.09,7.34,7.34,0,0,0,4.72.15,7.87,7.87,0,0,0,4.25-3.48q1.86-2.77,2-9,0-5.57-1.78-8.35A8,8,0,0,0,756,33.86a7.62,7.62,0,0,0-4.65-.08A8.16,8.16,0,0,0,747.9,35.56Z" transform="translate(0)" style="fill:#033"/><path d="M773.12,52.89h10.51A5.72,5.72,0,0,0,786,57.53a11,11,0,0,0,6.18,1.55,10,10,0,0,0,4.8-1.09,3.29,3.29,0,0,0,1.85-2.94c0-1.85-2.16-3.25-6.49-4.17a29.54,29.54,0,0,1-4.18-.93q-8.21-2-11-4.8a9.47,9.47,0,0,1-3.1-7.42A12.34,12.34,0,0,1,778.53,28q4.63-3.56,12.07-3.56,8,0,12.83,3.56A13.63,13.63,0,0,1,808.23,38h-6.65a4.93,4.93,0,0,1-4.49-2.63l-1.24-1.24a8.28,8.28,0,0,0-5.1-1.39,9.19,9.19,0,0,0-4.64.93,3.11,3.11,0,0,0-1.39,2.78q0,2.48,8,4.18a15.13,15.13,0,0,0,1.62.46,5.79,5.79,0,0,0,1.32.16q7.89,2,11,4.64a9.73,9.73,0,0,1,2.94,7.42q0,6.81-5,10.52-4.63,3.41-13.92,3.4-8.82,0-13.15-3.55-4.49-3.57-4.48-10.37Z" transform="translate(0)" style="fill:#033"/></g><g style="isolation:isolate"><path d="M97.75,50h10.83q.61,4.63,3.56,6.5,3.09,2.16,8.5,2.16,4.8,0,7.27-1.7A5.64,5.64,0,0,0,130.39,52q0-5-13.92-8l-.31-.16-1.24-.31q-7.89-1.7-10.52-3.56a9.21,9.21,0,0,1-4.33-5,14.51,14.51,0,0,1-1.55-7.11q0-7.57,5.26-11.91,5.27-4.18,15.32-4.18,9.44,0,14.54,4.33a17.2,17.2,0,0,1,5.57,12.53H133a5.27,5.27,0,0,1-5.11-3.25,7.59,7.59,0,0,0-2.16-2.63,12.74,12.74,0,0,0-7.58-2q-4.64,0-6.65,1.7a5.61,5.61,0,0,0-2.32,4.8q0,4.17,9,6.19a29.34,29.34,0,0,0,3.87.93c1.85.61,3.48,1.1,4.87,1.46l3.32.86,4.34,1.85a13.35,13.35,0,0,1,4.79,4.8,15.14,15.14,0,0,1,1.7,7.11q0,8.36-5.57,13-5.56,4.32-15.77,4.33-10.53,0-15.78-4.49Q98.21,58.77,97.75,50Z" transform="translate(0)" style="fill:none;stroke:#000;stroke-miterlimit:10;stroke-width:0.25px"/><path d="M144.16,13.29h5.57A5.26,5.26,0,0,1,155,18.55v3.24H144.16Zm0,12.06h5.57A5.28,5.28,0,0,1,155,30.61V66.5H144.16Z" transform="translate(0)" style="fill:none;stroke:#000;stroke-miterlimit:10;stroke-width:0.25px"/><path d="M154.52,52.89H165a5.68,5.68,0,0,0,2.32,4.64,11,11,0,0,0,6.19,1.55A10,10,0,0,0,178.34,58a3.29,3.29,0,0,0,1.86-2.94c0-1.85-2.17-3.25-6.5-4.17a29.87,29.87,0,0,1-4.18-.93q-8.19-2-11-4.8a9.49,9.49,0,0,1-3.09-7.42A12.33,12.33,0,0,1,159.93,28q4.65-3.56,12.07-3.56,8,0,12.84,3.56A13.59,13.59,0,0,1,189.63,38H183a4.91,4.91,0,0,1-4.48-2.63l-1.24-1.24a8.34,8.34,0,0,0-5.11-1.39,9.19,9.19,0,0,0-4.64.93,3.13,3.13,0,0,0-1.39,2.78q0,2.48,8,4.18a14.5,14.5,0,0,0,1.62.46,5.64,5.64,0,0,0,1.31.16q7.89,2,11,4.64A9.77,9.77,0,0,1,191,53.35q0,6.81-4.95,10.52-4.65,3.41-13.93,3.4c-5.87,0-10.26-1.18-13.14-3.55s-4.49-5.83-4.49-10.37Z" transform="translate(0)" style="fill:none;stroke:#000;stroke-miterlimit:10;stroke-width:0.25px"/><path d="M211,66.5a81.17,81.17,0,0,1-11.06-.15q-6-.46-5.95-7.58V13.29h5.56a4.89,4.89,0,0,1,3.56,1.54,5.09,5.09,0,0,1,1.55,3.72v7H211v2.16a5,5,0,0,1-1.55,3.79,5.2,5.2,0,0,1-3.71,1.47h-1.08v22.9c0,1.75,1,2.63,3.09,2.63H211Z" transform="translate(0)" style="fill:none;stroke:#000;stroke-miterlimit:10;stroke-width:0.25px"/><path d="M240.53,53.82h7.73a16.9,16.9,0,0,1-6.5,9.9,19.69,19.69,0,0,1-12.06,3.55q-8.82,0-13.77-5.72-5-5.56-5-15.93,0-9.9,4.8-15.47,5-5.73,13.76-5.73,9.28,0,14.39,5.57,4.95,5.73,4.95,15.94v1.7a2.47,2.47,0,0,1-.16,1.08H222q.16,4.8,2.32,7.12,2,2.47,6,2.47a8.74,8.74,0,0,0,4.48-1.08,2.05,2.05,0,0,0,.85-.54l.85-.85a3.47,3.47,0,0,1,1.16-1.24A4.6,4.6,0,0,1,240.53,53.82ZM222,41.75h15.78c-.21-2.78-.93-4.85-2.16-6.19a7.46,7.46,0,0,0-5.73-2.16,7.56,7.56,0,0,0-5.57,2.16A9,9,0,0,0,222,41.75Z" transform="translate(0)" style="fill:none;stroke:#000;stroke-miterlimit:10;stroke-width:0.25px"/><path d="M286.47,66.5H275.79V40.2c0-2.47-.74-4.28-2.24-5.41a8.13,8.13,0,0,0-5-1.7,7.84,7.84,0,0,0-4.95,1.7c-1.44,1.13-2.16,2.94-2.16,5.41V66.5H250.58V42.37q0-10.51,5.49-14.08a24,24,0,0,1,12.15-3.87,31.07,31.07,0,0,1,7,.78,14.73,14.73,0,0,1,6.18,3.09,13.71,13.71,0,0,1,5.5-2.86,31.48,31.48,0,0,1,6.57-1A23.3,23.3,0,0,1,306,28q5.71,3.57,5.72,14.39V66.5h-5.41A5,5,0,0,1,301,61.24v-21c0-2.47-.75-4.28-2.24-5.41a8.29,8.29,0,0,0-10.06,0c-1.49,1.13-2.24,2.94-2.24,5.41V66.5Z" transform="translate(0)" style="fill:none;stroke:#000;stroke-miterlimit:10;stroke-width:0.25px"/><path d="M340.92,64.8A19.21,19.21,0,0,1,334,66.89a63.77,63.77,0,0,1-6.42.38,16.2,16.2,0,0,1-9.75-3q-4.17-3-4.18-10,0-6.49,3.79-9.28a21.71,21.71,0,0,1,9.67-3.71,8.77,8.77,0,0,0,1.86-.24c.72-.15,1.54-.28,2.47-.38q6.81-.93,6.81-4a2.93,2.93,0,0,0-2.4-3,16.1,16.1,0,0,0-4.41-.7,11.28,11.28,0,0,0-3.86.62,4.23,4.23,0,0,0-2.48,2.32H314.78A11.91,11.91,0,0,1,319.11,28q4.17-3.56,11.91-3.56c5.77,0,10.1,1,13,2.94A10,10,0,0,1,348.5,36V50.1q0,6.19-2.24,9.67A13.78,13.78,0,0,1,340.92,64.8Zm-2.48-19a29.21,29.21,0,0,1-6,2l-3.56.78a9.06,9.06,0,0,0-4,2,6.3,6.3,0,0,0-1.08,3.4,5,5,0,0,0,1.39,3.71,5.85,5.85,0,0,0,4,1.24,8.55,8.55,0,0,0,9.28-9.28Z" transform="translate(0)" style="fill:none;stroke:#000;stroke-miterlimit:10;stroke-width:0.25px"/><path d="M349.12,52.89h10.52A5.68,5.68,0,0,0,362,57.53a11,11,0,0,0,6.18,1.55,10,10,0,0,0,4.8-1.09,3.29,3.29,0,0,0,1.86-2.94c0-1.85-2.17-3.25-6.5-4.17a29.54,29.54,0,0,1-4.18-.93c-5.47-1.34-9.12-2.94-11-4.8a9.49,9.49,0,0,1-3.09-7.42A12.33,12.33,0,0,1,354.53,28q4.64-3.56,12.07-3.56,8,0,12.84,3.56A13.62,13.62,0,0,1,384.23,38h-6.65a4.93,4.93,0,0,1-4.49-2.63l-1.23-1.24a8.34,8.34,0,0,0-5.11-1.39,9.19,9.19,0,0,0-4.64.93,3.11,3.11,0,0,0-1.39,2.78q0,2.48,8,4.18a14.61,14.61,0,0,0,1.63.46,5.64,5.64,0,0,0,1.31.16q7.89,2,11,4.64a9.73,9.73,0,0,1,2.94,7.42q0,6.81-4.95,10.52-4.64,3.41-13.92,3.4-8.82,0-13.15-3.55-4.49-3.57-4.48-10.37Z" transform="translate(0)" style="fill:none;stroke:#000;stroke-miterlimit:10;stroke-width:0.25px"/><path d="M405.11,66.5V18.86a5.55,5.55,0,0,1,5.57-5.57H431q8.66,0,12.84,3.71,4.32,3.87,4.33,11.29a14.5,14.5,0,0,1-2.17,8.2A10.61,10.61,0,0,1,440.07,41,8.52,8.52,0,0,1,445,44.69q1.39,2.33,1.7,7.89l.32,6.34v2a12.64,12.64,0,0,0,.15,2c.31,1.86.93,3,1.85,3.56H437a8.86,8.86,0,0,1-.93-3.25,31.86,31.86,0,0,1-.31-3.4l-.15-5.73q-.31-4.63-1.86-6.65c-1.13-1.13-3.15-1.7-6-1.7H416.1V66.5Zm11-30h12.84q4.17,0,6.18-1.7c1.34-1.13,2-2.89,2-5.26s-.67-4.12-2-5.26-3.09-1.86-5.57-1.86H416.1Z" transform="translate(0)" style="fill:none;stroke:#000;stroke-miterlimit:10;stroke-width:0.25px"/><path d="M479.83,53.82h7.73a16.89,16.89,0,0,1-6.49,9.9A19.72,19.72,0,0,1,469,67.27q-8.82,0-13.77-5.72-5-5.56-5-15.93,0-9.9,4.8-15.47,4.95-5.73,13.77-5.73,9.27,0,14.38,5.57,4.95,5.73,4.95,15.94v1.7a2.68,2.68,0,0,1-.15,1.08H461.27q.15,4.8,2.32,7.12c1.33,1.65,3.35,2.47,6,2.47a8.74,8.74,0,0,0,4.48-1.08,2.15,2.15,0,0,0,.86-.54l.85-.85A3.29,3.29,0,0,1,477,54.59,4.57,4.57,0,0,1,479.83,53.82ZM461.27,41.75H477c-.2-2.78-.92-4.85-2.16-6.19a7.44,7.44,0,0,0-5.73-2.16,7.52,7.52,0,0,0-5.56,2.16A8.86,8.86,0,0,0,461.27,41.75Z" transform="translate(0)" style="fill:none;stroke:#000;stroke-miterlimit:10;stroke-width:0.25px"/><path d="M489,52.89h10.51a5.73,5.73,0,0,0,2.32,4.64A11,11,0,0,0,508,59.08a10,10,0,0,0,4.8-1.09,3.29,3.29,0,0,0,1.85-2.94c0-1.85-2.16-3.25-6.49-4.17A29.54,29.54,0,0,1,504,50q-8.2-2-11-4.8a9.47,9.47,0,0,1-3.1-7.42A12.34,12.34,0,0,1,494.37,28q4.63-3.56,12.06-3.56c5.36,0,9.65,1.19,12.84,3.56A13.63,13.63,0,0,1,524.07,38h-6.65a4.93,4.93,0,0,1-4.49-2.63l-1.24-1.24a8.3,8.3,0,0,0-5.1-1.39,9.19,9.19,0,0,0-4.64.93,3.11,3.11,0,0,0-1.39,2.78q0,2.48,8,4.18a15.13,15.13,0,0,0,1.62.46,5.79,5.79,0,0,0,1.32.16q7.89,2,11,4.64a9.73,9.73,0,0,1,2.94,7.42q0,6.81-5,10.52-4.63,3.41-13.92,3.4-8.82,0-13.15-3.55Q489,60.15,489,53.35Z" transform="translate(0)" style="fill:none;stroke:#000;stroke-miterlimit:10;stroke-width:0.25px"/><path d="M537.68,76.4a5.29,5.29,0,0,1-5.26,5.26h-5.26V43.14q0-10.83,6.34-14.77a25.6,25.6,0,0,1,13.77-3.95,22.47,22.47,0,0,1,7.81,1.47,14.66,14.66,0,0,1,6.27,4.26q4.64,6,4.64,15.47,0,9.74-4.64,15.78a14.52,14.52,0,0,1-11.91,5.87,15.72,15.72,0,0,1-6.81-1.39,11.7,11.7,0,0,1-5-4.79Zm17.64-30.32c0-4-.78-7.11-2.32-9.28a7.68,7.68,0,0,0-6.66-3.25,7.5,7.5,0,0,0-6.49,3.25q-2.18,2.94-2.17,9.28c0,3.92.78,6.86,2.32,8.82a7.7,7.7,0,0,0,6.65,3.25A7.42,7.42,0,0,0,553,54.9C554.54,52.73,555.32,49.79,555.32,46.08Z" transform="translate(0)" style="fill:none;stroke:#000;stroke-miterlimit:10;stroke-width:0.25px"/><path d="M573,62.79a15.31,15.31,0,0,1-4.64-7.5,34.5,34.5,0,0,1-1.39-9.83,30.8,30.8,0,0,1,1.16-8.35,17.17,17.17,0,0,1,3.63-7,16,16,0,0,1,10.37-5.49,23.76,23.76,0,0,1,11.44,1,15.8,15.8,0,0,1,8.67,8.05,25.69,25.69,0,0,1,2.63,11.91,29.41,29.41,0,0,1-1.09,8.5,21.81,21.81,0,0,1-2.78,6,15.46,15.46,0,0,1-9.44,6.34,20.92,20.92,0,0,1-10.28.23A18,18,0,0,1,573,62.79Zm7.43-27.23q-3.25,3.57-2.94,10.6T580.07,56a6.89,6.89,0,0,0,3.24,2.09,7.34,7.34,0,0,0,4.72.15,7.88,7.88,0,0,0,4.26-3.48q1.85-2.77,2-9c0-3.71-.6-6.49-1.78-8.35a8.1,8.1,0,0,0-4.1-3.56,7.58,7.58,0,0,0-4.64-.08A8.09,8.09,0,0,0,580.38,35.56Z" transform="translate(0)" style="fill:none;stroke:#000;stroke-miterlimit:10;stroke-width:0.25px"/><path d="M642.4,66.5H637a5,5,0,0,1-5.26-5.26v-21c0-2.47-.75-4.28-2.24-5.41a8.15,8.15,0,0,0-5-1.7,7.8,7.8,0,0,0-5,1.7c-1.44,1.13-2.16,2.94-2.16,5.41V66.5H606.52V42.37q0-10.51,5.49-14.08a24,24,0,0,1,12.14-3.87A23.28,23.28,0,0,1,636.68,28q5.73,3.57,5.72,14.39Z" transform="translate(0)" style="fill:none;stroke:#000;stroke-miterlimit:10;stroke-width:0.25px"/><path d="M643.18,52.89H653.7A5.68,5.68,0,0,0,656,57.53a11,11,0,0,0,6.19,1.55A10,10,0,0,0,667,58a3.29,3.29,0,0,0,1.86-2.94c0-1.85-2.17-3.25-6.5-4.17a29.54,29.54,0,0,1-4.18-.93c-5.47-1.34-9.12-2.94-11-4.8a9.49,9.49,0,0,1-3.09-7.42A12.33,12.33,0,0,1,648.59,28q4.65-3.56,12.07-3.56,8,0,12.84,3.56A13.62,13.62,0,0,1,678.29,38h-6.65a4.93,4.93,0,0,1-4.49-2.63l-1.23-1.24a8.34,8.34,0,0,0-5.11-1.39,9.19,9.19,0,0,0-4.64.93,3.11,3.11,0,0,0-1.39,2.78q0,2.48,8,4.18a14.61,14.61,0,0,0,1.63.46,5.64,5.64,0,0,0,1.31.16q7.89,2,11,4.64a9.76,9.76,0,0,1,2.93,7.42q0,6.81-4.95,10.52-4.63,3.41-13.92,3.4-8.82,0-13.15-3.55-4.49-3.57-4.48-10.37Z" transform="translate(0)" style="fill:none;stroke:#000;stroke-miterlimit:10;stroke-width:0.25px"/><path d="M682.31,13.29h5.57a5.26,5.26,0,0,1,5.26,5.26v3.24H682.31Zm0,12.06h5.57a5.28,5.28,0,0,1,5.26,5.26V66.5H682.31Z" transform="translate(0)" style="fill:none;stroke:#000;stroke-miterlimit:10;stroke-width:0.25px"/><path d="M719,66.5H708L693.61,25.35h11.44l8.2,28.93,7.27-25.21a4.86,4.86,0,0,1,5-3.72h8Z" transform="translate(0)" style="fill:none;stroke:#000;stroke-miterlimit:10;stroke-width:0.25px"/><path d="M740.48,62.79a15.24,15.24,0,0,1-4.64-7.5,34.5,34.5,0,0,1-1.4-9.83,31.2,31.2,0,0,1,1.16-8.35,17.31,17.31,0,0,1,3.64-7,16,16,0,0,1,10.36-5.49,23.79,23.79,0,0,1,11.45,1,15.75,15.75,0,0,1,8.66,8.05,25.69,25.69,0,0,1,2.63,11.91,29.43,29.43,0,0,1-1.08,8.5,21.53,21.53,0,0,1-2.79,6A15.43,15.43,0,0,1,759,66.5a21,21,0,0,1-10.29.23A18,18,0,0,1,740.48,62.79Zm7.42-27.23c-2.16,2.38-3.15,5.91-2.94,10.6s1.08,8,2.63,9.82a6.93,6.93,0,0,0,3.25,2.09,7.34,7.34,0,0,0,4.72.15,7.87,7.87,0,0,0,4.25-3.48q1.86-2.77,2-9,0-5.57-1.78-8.35A8,8,0,0,0,756,33.86a7.62,7.62,0,0,0-4.65-.08A8.16,8.16,0,0,0,747.9,35.56Z" transform="translate(0)" style="fill:none;stroke:#000;stroke-miterlimit:10;stroke-width:0.25px"/><path d="M773.12,52.89h10.51A5.72,5.72,0,0,0,786,57.53a11,11,0,0,0,6.18,1.55,10,10,0,0,0,4.8-1.09,3.29,3.29,0,0,0,1.85-2.94c0-1.85-2.16-3.25-6.49-4.17a29.54,29.54,0,0,1-4.18-.93q-8.21-2-11-4.8a9.47,9.47,0,0,1-3.1-7.42A12.34,12.34,0,0,1,778.53,28q4.63-3.56,12.07-3.56,8,0,12.83,3.56A13.63,13.63,0,0,1,808.23,38h-6.65a4.93,4.93,0,0,1-4.49-2.63l-1.24-1.24a8.28,8.28,0,0,0-5.1-1.39,9.19,9.19,0,0,0-4.64.93,3.11,3.11,0,0,0-1.39,2.78q0,2.48,8,4.18a15.13,15.13,0,0,0,1.62.46,5.79,5.79,0,0,0,1.32.16q7.89,2,11,4.64a9.73,9.73,0,0,1,2.94,7.42q0,6.81-5,10.52-4.63,3.41-13.92,3.4-8.82,0-13.15-3.55-4.49-3.57-4.48-10.37Z" transform="translate(0)" style="fill:none;stroke:#000;stroke-miterlimit:10;stroke-width:0.25px"/></g></svg>